<?xml version="1.0" encoding="utf-8"?>
<!-- Generator: Adobe Illustrator 17.1.0, SVG Export Plug-In . SVG Version: 6.00 Build 0)  -->
<!DOCTYPE svg PUBLIC "-//W3C//DTD SVG 1.1//EN" "http://www.w3.org/Graphics/SVG/1.1/DTD/svg11.dtd">
<!-- <svg version="1.1" id="Layer_1" xmlns="http://www.w3.org/2000/svg" xmlns:xlink="http://www.w3.org/1999/xlink" x="0px" y="0px"
	 width="24px" height="24px" viewBox="0 0 24 24" style="enable-background:new 0 0 24 24;" xml:space="preserve">
<style type="text/css">
	.st0{fill:#FFFFFF;}
</style>
<path class="st0" d="M21,0H3C1.3,0,0,1.3,0,3v18c0,1.7,1.3,3,3,3h18c1.7,0,3-1.3,3-3V3C24,1.3,22.7,0,21,0z M11,5c1.1,0,2,0.9,2,2
	c0,1.1-0.9,2-2,2S9,8.1,9,7C9,5.9,9.9,5,11,5z M21,18H3v-3l4-3l4,3l5-6l5,5V18z"/>
<path class="st0" d="M991.67104 992.256a107.904 107.904 0 0 1-152.576 0L511.67104 664.832 184.37504 992.256A107.904 107.904 0 1 1 31.67104 839.424L359.09504 512 31.67104 184.576A108.16 108.16 0 0 1 184.63104 31.616L512.05504 359.04 839.47904 31.616a108.16 108.16 0 0 1 152.96 152.96L665.01504 512l326.656 327.424c42.24 42.24 42.24 110.592 0 152.832z"/>
</svg> -->
<svg t="1610374503740" class="icon" viewBox="0 0 1024 1024" version="1.1" xmlns="http://www.w3.org/2000/svg" p-id="4393" width="300px" height="300px"><path d="M881 512c0-52.4 32.9-96.8 79-114.5-11-43.2-28-83.9-50.2-121.3C864.6 296.3 810 288.1 773 251c-37-37-45.2-91.7-25.1-136.8C710.4 92 669.7 75 626.5 64c-17.8 46.1-62.2 79-114.5 79-52.4 0-96.8-32.9-114.5-79-43.2 11-83.9 28-121.3 50.2 20.1 45.2 11.9 99.8-25.1 136.8-37 37-91.7 45.2-136.8 25.2C92 313.6 75 354.3 64 397.5c46.1 17.8 79 62.2 79 114.5 0 52.4-32.9 96.8-79 114.5 11 43.2 28 83.9 50.2 121.3C159.4 727.7 214 735.9 251 773c37 37 45.2 91.7 25.1 136.8C313.6 932 354.3 949 397.5 960c17.8-46.1 62.2-79 114.5-79 52.4 0 96.8 32.9 114.5 79 43.2-11 83.9-28 121.3-50.2-20.1-45.2-11.9-99.8 25.1-136.8 37-37 91.7-45.2 136.8-25.2C932 710.4 949 669.7 960 626.5c-46.1-17.7-79-62.1-79-114.5zM512 635c-67.9 0-123-55.1-123-123s55.1-123 123-123 123 55.1 123 123-55.1 123-123 123z" fill="#ffffff" p-id="4394"></path></svg>