<?xml version="1.0" encoding="utf-8"?>
<!-- Generator: Adobe Illustrator 17.1.0, SVG Export Plug-In . SVG Version: 6.00 Build 0)  -->
<!DOCTYPE svg PUBLIC "-//W3C//DTD SVG 1.1//EN" "http://www.w3.org/Graphics/SVG/1.1/DTD/svg11.dtd">
<svg t="1610377808739" class="icon" viewBox="0 0 1393 1024" version="1.1" xmlns="http://www.w3.org/2000/svg" p-id="8176" width="200" height="200"><path d="M1387.140741 290.133333c0 52.148148-14.222222 100.503704-37.925926 142.222223l-0.948148 0.948148c-5.688889 8.533333-10.42963 17.066667-17.066667 25.6v18.014815l11.377778 363.14074c0.948148 5.688889 0.948148 12.325926 0.948148 18.014815 0 67.318519-42.666667 128-107.140741 149.807407-56.888889 18.962963-116.622222 3.792593-157.392592-35.081481-16.118519-15.17037-29.392593-34.133333-37.925926-55.940741l-79.644445-203.851852-23.703703-61.629629v-29.392593H474.074074l-7.585185 31.288889c-4.740741-7.585185-0.948148 9.481481-3.792593 0.948148L357.451852 922.548148c-24.651852 60.681481-83.437037 98.607407-146.014815 98.607408-17.066667 0-33.185185-2.844444-50.251852-8.533334-21.807407-7.585185-41.718519-18.962963-57.837037-35.081481-35.081481-33.185185-54.044444-82.488889-48.355555-132.740741L66.37037 477.866667V462.696296c-2.844444-4.740741-6.637037-8.533333-9.481481-13.274074-0.948148-1.896296-1.896296-2.844444-2.844445-4.740741C26.548148 401.066667 10.42963 348.918519 10.42963 293.925926c0-156.444444 127.051852-284.444444 284.444444-284.444445 81.540741 0 154.548148 34.133333 206.696296 89.125926h388.740741C942.459259 39.822222 1018.311111 1.896296 1103.644444 1.896296c102.4 0 192.474074 54.044444 242.725926 135.585185 25.6 47.407407 40.77037 98.607407 40.770371 152.651852z" fill="#C5DCFA" p-id="8177"></path><path d="M292.02963 294.874074m-283.496297 0a283.496296 283.496296 0 1 0 566.992593 0 283.496296 283.496296 0 1 0-566.992593 0Z" fill="#DFECFD" p-id="8178"></path><path d="M1103.644444 289.185185m-283.496296 0a283.496296 283.496296 0 1 0 566.992593 0 283.496296 283.496296 0 1 0-566.992593 0Z" fill="#DFECFD" p-id="8179"></path><path d="M337.540741 254.103704v-70.162963c0-9.481481-7.585185-17.066667-17.066667-17.066667h-52.148148c-9.481481 0-17.066667 7.585185-17.066667 17.066667v70.162963h-70.162963c-9.481481 0-17.066667 7.585185-17.066666 17.066666v52.148149c0 9.481481 7.585185 17.066667 17.066666 17.066666h70.162963v70.162963c0 9.481481 7.585185 17.066667 17.066667 17.066667h52.148148c9.481481 0 17.066667-7.585185 17.066667-17.066667v-70.162963H407.703704c9.481481 0 17.066667-7.585185 17.066666-17.066666v-52.148149c0-9.481481-7.585185-17.066667-17.066666-17.066666h-70.162963z" fill="#4988FD" p-id="8180"></path><path d="M988.918519 298.666667m-58.785186 0a58.785185 58.785185 0 1 0 117.570371 0 58.785185 58.785185 0 1 0-117.570371 0Z" fill="#4988FD" p-id="8181"></path><path d="M1229.748148 298.666667m-58.785185 0a58.785185 58.785185 0 1 0 117.57037 0 58.785185 58.785185 0 1 0-117.57037 0Z" fill="#4988FD" p-id="8182"></path><path d="M1109.333333 419.081481m-58.785185 0a58.785185 58.785185 0 1 0 117.570371 0 58.785185 58.785185 0 1 0-117.570371 0Z" fill="#4988FD" p-id="8183"></path><path d="M1109.333333 178.251852m-58.785185 0a58.785185 58.785185 0 1 0 117.570371 0 58.785185 58.785185 0 1 0-117.570371 0Z" fill="#4988FD" p-id="8184"></path><path d="M835.318519 514.844444m-138.42963 0a138.42963 138.42963 0 1 0 276.859259 0 138.42963 138.42963 0 1 0-276.859259 0Z" fill="#DFECFD" p-id="8185"></path><path d="M935.822222 514.844444c0 54.992593-44.562963 100.503704-100.503703 100.503704-42.666667 0-79.644444-27.496296-93.866667-65.422222-3.792593-10.42963-6.637037-22.755556-6.637037-35.081482 0-54.992593 45.511111-100.503704 100.503704-100.503703 36.02963 0 66.37037 18.014815 84.385185 46.459259 10.42963 15.17037 16.118519 34.133333 16.118518 54.044444z" fill="#3973F4" p-id="8186"></path><path d="M560.355556 514.844444m-138.42963 0a138.42963 138.42963 0 1 0 276.859259 0 138.42963 138.42963 0 1 0-276.859259 0Z" fill="#DFECFD" p-id="8187"></path><path d="M660.859259 514.844444c0 54.992593-45.511111 100.503704-100.503703 100.503704-42.666667 0-79.644444-27.496296-93.866667-65.422222-3.792593-10.42963-6.637037-22.755556-6.637037-35.081482 0-54.992593 45.511111-100.503704 100.503704-100.503703 35.081481 0 66.37037 18.014815 84.385185 46.459259 10.42963 15.17037 16.118519 34.133333 16.118518 54.044444z" fill="#3973F4" p-id="8188"></path><path d="M926.340741 495.881481c0 54.992593-44.562963 100.503704-100.503704 100.503704-35.081481 0-66.37037-18.962963-84.385185-46.459259-3.792593-10.42963-6.637037-22.755556-6.637037-35.081482 0-54.992593 45.511111-100.503704 100.503704-100.503703 36.02963 0 66.37037 18.014815 84.385185 46.459259 4.740741 10.42963 6.637037 22.755556 6.637037 35.081481zM651.377778 495.881481c0 54.992593-45.511111 100.503704-100.503704 100.503704-35.081481 0-66.37037-18.962963-84.385185-46.459259-3.792593-10.42963-6.637037-22.755556-6.637037-35.081482 0-54.992593 45.511111-100.503704 100.503704-100.503703 35.081481 0 66.37037 18.014815 84.385185 46.459259 4.740741 10.42963 6.637037 22.755556 6.637037 35.081481z" fill="#4988FD" p-id="8189"></path></svg>