<?xml version="1.0" encoding="utf-8"?>
<!-- Generator: Adobe Illustrator 17.1.0, SVG Export Plug-In . SVG Version: 6.00 Build 0)  -->
<!DOCTYPE svg PUBLIC "-//W3C//DTD SVG 1.1//EN" "http://www.w3.org/Graphics/SVG/1.1/DTD/svg11.dtd">
<!-- <svg version="1.1" id="Layer_1" xmlns="http://www.w3.org/2000/svg" xmlns:xlink="http://www.w3.org/1999/xlink" x="0px" y="0px"
	 width="24px" height="24px" viewBox="0 0 24 24" style="enable-background:new 0 0 24 24;" xml:space="preserve">
<style type="text/css">
	.st0{fill:#FFFFFF;}
</style>
<path class="st0" d="M18,9V7c0-1.7-1.3-3-3-3H3C1.3,4,0,5.3,0,7v10c0,1.7,1.3,3,3,3h12c1.7,0,3-1.3,3-3v-2l4.6,2.3
	c0.7,0.3,1.4-0.2,1.4-0.9V7.6c0-0.7-0.8-1.2-1.4-0.9L18,9z"/>
</svg>
 -->
<svg t="1610377946413" class="icon" viewBox="0 0 1133 1024" version="1.1" xmlns="http://www.w3.org/2000/svg" p-id="15014" width="200" height="200"><path d="M717.46107709 1012.82244033c0 29.68002698-23.22784789 52.90787485-52.9078766 52.90787485H463.24518722c-29.68002698 0-52.90787485-23.22784789-52.90787483-52.90787485V306.95395802c0-29.68002698 23.22784789-52.90787485 52.90787483-52.90787485h201.30801327c29.68002698 0 52.90787485 23.22784789 52.9078766 52.90787485v705.86848231z" fill="#17BADE" p-id="15015"></path><path d="M330.33028253 1012.82244033c0 29.68002698-23.22784789 52.90787485-52.90787662 52.90787485H76.11439267c-29.68002698 0-52.90787485-23.22784789-52.90787484-52.90787485V521.16633119c0-29.68002698 23.22784789-52.90787485 52.90787484-52.90787484h201.30801324c29.68002698 0 52.90787485 23.22784789 52.90787662 52.90787484v491.65610914z" fill="#FFD95E" p-id="15016"></path><path d="M1114.91535783 1012.82244033c0 29.68002698-23.22784789 52.90787485-52.90787487 52.90787485h-201.30801323c-29.68002698 0-52.90787485-23.22784789-52.90787485-52.90787485V4.99193905c0-29.68002698 23.22784789-52.90787485 52.90787485-52.90787662h201.30801323c29.68002698 0 52.90787485 23.22784789 52.90787487 52.90787662v1007.83050128z" fill="#595959" p-id="15017"></path></svg>